<svg version="1.1" viewBox="0.0 0.0 1268.3175853018372 622.8477690288714" fill="none" stroke="none" stroke-linecap="square" stroke-miterlimit="10" xmlns:xlink="http://www.w3.org/1999/xlink" xmlns="http://www.w3.org/2000/svg"><clipPath id="p.0"><path d="m0 0l1268.3176 0l0 622.8478l-1268.3176 0l0 -622.8478z" clip-rule="nonzero"/></clipPath><g clip-path="url(#p.0)"><path fill="#000000" fill-opacity="0.0" d="m0 0l1268.3176 0l0 622.8478l-1268.3176 0z" fill-rule="evenodd"/><path fill="#93c47d" d="m51.997375 182.40945l143.74803 0l0 67.9055l-143.74803 0z" fill-rule="evenodd"/><path fill="#000000" d="m62.23175 223.2822l0 -13.359375l1.640625 0l0 4.796875q1.140625 -1.328125 2.890625 -1.328125q1.078125 0 1.859375 0.421875q0.796875 0.421875 1.140625 1.171875q0.34375 0.75 0.34375 2.171875l0 6.125l-1.640625 0l0 -6.125q0 -1.234375 -0.53125 -1.796875q-0.53125 -0.5625 -1.515625 -0.5625q-0.71875 0 -1.359375 0.390625q-0.640625 0.375 -0.921875 1.015625q-0.265625 0.640625 -0.265625 1.78125l0 5.296875l-1.640625 0zm9.766342 -4.84375q0 -2.6875 1.484375 -3.96875q1.25 -1.078125 3.046875 -1.078125q2.0 0 3.265625 1.3125q1.265625 1.296875 1.265625 3.609375q0 1.859375 -0.5625 2.9375q-0.5625 1.0625 -1.640625 1.65625q-1.0625 0.59375 -2.328125 0.59375q-2.03125 0 -3.28125 -1.296875q-1.25 -1.3125 -1.25 -3.765625zm1.6875 0q0 1.859375 0.796875 2.796875q0.8125 0.921875 2.046875 0.921875q1.21875 0 2.03125 -0.921875q0.8125 -0.9375 0.8125 -2.84375q0 -1.796875 -0.8125 -2.71875q-0.8125 -0.921875 -2.03125 -0.921875q-1.234375 0 -2.046875 0.921875q-0.796875 0.90625 -0.796875 2.765625zm9.297592 4.84375l0 -9.671875l1.46875 0l0 1.359375q0.453125 -0.71875 1.203125 -1.140625q0.765625 -0.4375 1.71875 -0.4375q1.078125 0 1.765625 0.453125q0.6875 0.4375 0.96875 1.234375q1.15625 -1.6875 2.984375 -1.6875q1.453125 0 2.21875 0.796875q0.78125 0.796875 0.78125 2.453125l0 6.640625l-1.640625 0l0 -6.09375q0 -0.984375 -0.15625 -1.40625q-0.15625 -0.4375 -0.578125 -0.703125q-0.421875 -0.265625 -0.984375 -0.265625q-1.015625 0 -1.6875 0.6875q-0.671875 0.671875 -0.671875 2.15625l0 5.625l-1.640625 0l0 -6.28125q0 -1.09375 -0.40625 -1.640625q-0.40625 -0.546875 -1.3125 -0.546875q-0.6875 0 -1.28125 0.359375q-0.59375 0.359375 -0.859375 1.0625q-0.25 0.703125 -0.25 2.03125l0 5.015625l-1.640625 0zm22.165802 -3.109375l1.6875 0.203125q-0.40625 1.484375 -1.484375 2.3125q-1.078125 0.8125 -2.765625 0.8125q-2.125 0 -3.375 -1.296875q-1.234375 -1.3125 -1.234375 -3.671875q0 -2.453125 1.25 -3.796875q1.265625 -1.34375 3.265625 -1.34375q1.9375 0 3.15625 1.328125q1.234375 1.3125 1.234375 3.703125q0 0.15625 0 0.4375l-7.21875 0q0.09375 1.59375 0.90625 2.453125q0.8125 0.84375 2.015625 0.84375q0.90625 0 1.546875 -0.46875q0.640625 -0.484375 1.015625 -1.515625zm-5.390625 -2.65625l5.40625 0q-0.109375 -1.21875 -0.625 -1.828125q-0.78125 -0.953125 -2.03125 -0.953125q-1.125 0 -1.90625 0.765625q-0.765625 0.75 -0.84375 2.015625z" fill-rule="nonzero"/><path fill="#93c47d" d="m279.65353 67.291336l143.74805 0l0 67.90552l-143.74805 0z" fill-rule="evenodd"/><path fill="#000000" d="m290.09103 108.16409l0 -13.359375l5.046875 0q1.328125 0 2.03125 0.125q0.96875 0.171875 1.640625 0.640625q0.671875 0.453125 1.078125 1.28125q0.40625 0.828125 0.40625 1.828125q0 1.703125 -1.09375 2.890625q-1.078125 1.171875 -3.921875 1.171875l-3.421875 0l0 5.421875l-1.765625 0zm1.765625 -7.0l3.453125 0q1.71875 0 2.4375 -0.640625q0.71875 -0.640625 0.71875 -1.796875q0 -0.84375 -0.421875 -1.4375q-0.421875 -0.59375 -1.125 -0.78125q-0.4375 -0.125 -1.640625 -0.125l-3.421875 0l0 4.78125zm10.459198 7.0l0 -9.671875l1.46875 0l0 1.46875q0.5625 -1.03125 1.03125 -1.359375q0.484375 -0.328125 1.0625 -0.328125q0.828125 0 1.6875 0.53125l-0.5625 1.515625q-0.609375 -0.359375 -1.203125 -0.359375q-0.546875 0 -0.96875 0.328125q-0.421875 0.328125 -0.609375 0.890625q-0.28125 0.875 -0.28125 1.921875l0 5.0625l-1.625 0zm5.618927 -4.84375q0 -2.6875 1.484375 -3.96875q1.25 -1.078125 3.046875 -1.078125q2.0 0 3.265625 1.3125q1.265625 1.296875 1.265625 3.609375q0 1.859375 -0.5625 2.9375q-0.5625 1.0625 -1.640625 1.65625q-1.0625 0.59375 -2.328125 0.59375q-2.03125 0 -3.28125 -1.296875q-1.25 -1.3125 -1.25 -3.765625zm1.6875 0q0 1.859375 0.796875 2.796875q0.8125 0.921875 2.046875 0.921875q1.21875 0 2.03125 -0.921875q0.8125 -0.9375 0.8125 -2.84375q0 -1.796875 -0.8125 -2.71875q-0.8125 -0.921875 -2.03125 -0.921875q-1.234375 0 -2.046875 0.921875q-0.796875 0.90625 -0.796875 2.765625zm15.563232 4.84375l0 -1.21875q-0.90625 1.4375 -2.703125 1.4375q-1.15625 0 -2.125 -0.640625q-0.96875 -0.640625 -1.5 -1.78125q-0.53125 -1.140625 -0.53125 -2.625q0 -1.453125 0.484375 -2.625q0.484375 -1.1875 1.4375 -1.8125q0.96875 -0.625 2.171875 -0.625q0.875 0 1.546875 0.375q0.6875 0.359375 1.109375 0.953125l0 -4.796875l1.640625 0l0 13.359375l-1.53125 0zm-5.171875 -4.828125q0 1.859375 0.78125 2.78125q0.78125 0.921875 1.84375 0.921875q1.078125 0 1.828125 -0.875q0.75 -0.890625 0.75 -2.6875q0 -1.984375 -0.765625 -2.90625q-0.765625 -0.9375 -1.890625 -0.9375q-1.078125 0 -1.8125 0.890625q-0.734375 0.890625 -0.734375 2.8125zm15.610077 4.828125l0 -1.421875q-1.125 1.640625 -3.0625 1.640625q-0.859375 0 -1.609375 -0.328125q-0.734375 -0.328125 -1.09375 -0.828125q-0.359375 -0.5 -0.5 -1.21875q-0.109375 -0.46875 -0.109375 -1.53125l0 -5.984375l1.640625 0l0 5.359375q0 1.28125 0.109375 1.734375q0.15625 0.640625 0.65625 1.015625q0.5 0.375 1.234375 0.375q0.734375 0 1.375 -0.375q0.65625 -0.390625 0.921875 -1.03125q0.265625 -0.65625 0.265625 -1.890625l0 -5.1875l1.640625 0l0 9.671875l-1.46875 0zm10.360107 -3.546875l1.609375 0.21875q-0.265625 1.65625 -1.359375 2.609375q-1.078125 0.9375 -2.671875 0.9375q-1.984375 0 -3.1875 -1.296875q-1.203125 -1.296875 -1.203125 -3.71875q0 -1.578125 0.515625 -2.75q0.515625 -1.171875 1.578125 -1.75q1.0625 -0.59375 2.3125 -0.59375q1.578125 0 2.578125 0.796875q1.0 0.796875 1.28125 2.265625l-1.59375 0.234375q-0.234375 -0.96875 -0.8125 -1.453125q-0.578125 -0.5 -1.390625 -0.5q-1.234375 0 -2.015625 0.890625q-0.78125 0.890625 -0.78125 2.8125q0 1.953125 0.75 2.84375q0.75 0.875 1.953125 0.875q0.96875 0 1.609375 -0.59375q0.65625 -0.59375 0.828125 -1.828125zm6.59375 2.078125l0.234375 1.453125q-0.6875 0.140625 -1.234375 0.140625q-0.890625 0 -1.390625 -0.28125q-0.484375 -0.28125 -0.6875 -0.734375q-0.203125 -0.46875 -0.203125 -1.9375l0 -5.578125l-1.203125 0l0 -1.265625l1.203125 0l0 -2.390625l1.625 -0.984375l0 3.375l1.65625 0l0 1.265625l-1.65625 0l0 5.671875q0 0.6875 0.078125 0.890625q0.09375 0.203125 0.28125 0.328125q0.203125 0.109375 0.578125 0.109375q0.265625 0 0.71875 -0.0625zm4.4928894 1.46875l5.125 -13.359375l1.90625 0l5.46875 13.359375l-2.015625 0l-1.546875 -4.046875l-5.59375 0l-1.46875 4.046875l-1.875 0zm3.859375 -5.484375l4.53125 0l-1.40625 -3.703125q-0.625 -1.6875 -0.9375 -2.765625q-0.265625 1.28125 -0.71875 2.546875l-1.46875 3.921875z" fill-rule="nonzero"/><path fill="#93c47d" d="m275.98425 297.51968l143.74802 0l0 67.90552l-143.74802 0z" fill-rule="evenodd"/><path fill="#000000" d="m286.42175 338.39243l0 -13.359375l5.046875 0q1.328125 0 2.03125 0.125q0.96875 0.171875 1.640625 0.640625q0.671875 0.453125 1.078125 1.28125q0.40625 0.828125 0.40625 1.828125q0 1.703125 -1.09375 2.890625q-1.078125 1.171875 -3.921875 1.171875l-3.421875 0l0 5.421875l-1.765625 0zm1.765625 -7.0l3.453125 0q1.71875 0 2.4375 -0.640625q0.71875 -0.640625 0.71875 -1.796875q0 -0.84375 -0.421875 -1.4375q-0.421875 -0.59375 -1.125 -0.78125q-0.4375 -0.125 -1.640625 -0.125l-3.421875 0l0 4.78125zm10.459198 7.0l0 -9.671875l1.46875 0l0 1.46875q0.5625 -1.03125 1.03125 -1.359375q0.484375 -0.328125 1.0625 -0.328125q0.828125 0 1.6875 0.53125l-0.5625 1.515625q-0.609375 -0.359375 -1.203125 -0.359375q-0.546875 0 -0.96875 0.328125q-0.421875 0.328125 -0.609375 0.890625q-0.28125 0.875 -0.28125 1.921875l0 5.0625l-1.625 0zm5.618927 -4.84375q0 -2.6875 1.484375 -3.96875q1.25 -1.078125 3.046875 -1.078125q2.0 0 3.265625 1.3125q1.265625 1.296875 1.265625 3.609375q0 1.859375 -0.5625 2.9375q-0.5625 1.0625 -1.640625 1.65625q-1.0625 0.59375 -2.328125 0.59375q-2.03125 0 -3.28125 -1.296875q-1.25 -1.3125 -1.25 -3.765625zm1.6875 0q0 1.859375 0.796875 2.796875q0.8125 0.921875 2.046875 0.921875q1.21875 0 2.03125 -0.921875q0.8125 -0.9375 0.8125 -2.84375q0 -1.796875 -0.8125 -2.71875q-0.8125 -0.921875 -2.03125 -0.921875q-1.234375 0 -2.046875 0.921875q-0.796875 0.90625 -0.796875 2.765625zm15.563202 4.84375l0 -1.21875q-0.90625 1.4375 -2.703125 1.4375q-1.15625 0 -2.125 -0.640625q-0.96875 -0.640625 -1.5 -1.78125q-0.53125 -1.140625 -0.53125 -2.625q0 -1.453125 0.484375 -2.625q0.484375 -1.1875 1.4375 -1.8125q0.96875 -0.625 2.171875 -0.625q0.875 0 1.546875 0.375q0.6875 0.359375 1.109375 0.953125l0 -4.796875l1.640625 0l0 13.359375l-1.53125 0zm-5.171875 -4.828125q0 1.859375 0.78125 2.78125q0.78125 0.921875 1.84375 0.921875q1.078125 0 1.828125 -0.875q0.75 -0.890625 0.75 -2.6875q0 -1.984375 -0.765625 -2.90625q-0.765625 -0.9375 -1.890625 -0.9375q-1.078125 0 -1.8125 0.890625q-0.734375 0.890625 -0.734375 2.8125zm15.610107 4.828125l0 -1.421875q-1.125 1.640625 -3.0625 1.640625q-0.859375 0 -1.609375 -0.328125q-0.734375 -0.328125 -1.09375 -0.828125q-0.359375 -0.5 -0.5 -1.21875q-0.109375 -0.46875 -0.109375 -1.53125l0 -5.984375l1.640625 0l0 5.359375q0 1.28125 0.109375 1.734375q0.15625 0.640625 0.65625 1.015625q0.5 0.375 1.234375 0.375q0.734375 0 1.375 -0.375q0.65625 -0.390625 0.921875 -1.03125q0.265625 -0.65625 0.265625 -1.890625l0 -5.1875l1.640625 0l0 9.671875l-1.46875 0zm10.360077 -3.546875l1.609375 0.21875q-0.265625 1.65625 -1.359375 2.609375q-1.078125 0.9375 -2.671875 0.9375q-1.984375 0 -3.1875 -1.296875q-1.203125 -1.296875 -1.203125 -3.71875q0 -1.578125 0.515625 -2.75q0.515625 -1.171875 1.578125 -1.75q1.0625 -0.59375 2.3125 -0.59375q1.578125 0 2.578125 0.796875q1.0 0.796875 1.28125 2.265625l-1.59375 0.234375q-0.234375 -0.96875 -0.8125 -1.453125q-0.578125 -0.5 -1.390625 -0.5q-1.234375 0 -2.015625 0.890625q-0.78125 0.890625 -0.78125 2.8125q0 1.953125 0.75 2.84375q0.75 0.875 1.953125 0.875q0.96875 0 1.609375 -0.59375q0.65625 -0.59375 0.828125 -1.828125zm6.59375 2.078125l0.234375 1.453125q-0.6875 0.140625 -1.234375 0.140625q-0.890625 0 -1.390625 -0.28125q-0.484375 -0.28125 -0.6875 -0.734375q-0.203125 -0.46875 -0.203125 -1.9375l0 -5.578125l-1.203125 0l0 -1.265625l1.203125 0l0 -2.390625l1.625 -0.984375l0 3.375l1.65625 0l0 1.265625l-1.65625 0l0 5.671875q0 0.6875 0.078125 0.890625q0.09375 0.203125 0.28125 0.328125q0.203125 0.109375 0.578125 0.109375q0.265625 0 0.71875 -0.0625zm6.9134827 1.46875l0 -13.359375l5.015625 0q1.53125 0 2.453125 0.40625q0.921875 0.40625 1.4375 1.25q0.53125 0.84375 0.53125 1.765625q0 0.859375 -0.46875 1.625q-0.453125 0.75 -1.390625 1.203125q1.203125 0.359375 1.859375 1.21875q0.65625 0.859375 0.65625 2.015625q0 0.9375 -0.40625 1.75q-0.390625 0.796875 -0.984375 1.234375q-0.578125 0.4375 -1.453125 0.671875q-0.875 0.21875 -2.15625 0.21875l-5.09375 0zm1.78125 -7.75l2.875 0q1.1875 0 1.6875 -0.140625q0.671875 -0.203125 1.015625 -0.671875q0.34375 -0.46875 0.34375 -1.171875q0 -0.65625 -0.328125 -1.15625q-0.3125 -0.515625 -0.90625 -0.703125q-0.59375 -0.1875 -2.03125 -0.1875l-2.65625 0l0 4.03125zm0 6.171875l3.3125 0q0.859375 0 1.203125 -0.0625q0.609375 -0.109375 1.015625 -0.359375q0.421875 -0.265625 0.6875 -0.75q0.265625 -0.484375 0.265625 -1.125q0 -0.75 -0.390625 -1.296875q-0.375 -0.546875 -1.0625 -0.765625q-0.671875 -0.234375 -1.953125 -0.234375l-3.078125 0l0 4.59375z" fill-rule="nonzero"/><path fill="#ffd966" d="m499.55643 182.43701l143.74802 0l0 67.9055l-143.74802 0z" fill-rule="evenodd"/><path fill="#000000" d="m519.5252 218.62225l1.765625 0.453125q-0.5625 2.171875 -2.0 3.328125q-1.4375 1.140625 -3.53125 1.140625q-2.15625 0 -3.515625 -0.875q-1.3437805 -0.890625 -2.0625305 -2.546875q-0.703125 -1.671875 -0.703125 -3.59375q0 -2.078125 0.796875 -3.625q0.796875 -1.5625 2.2656555 -2.359375q1.484375 -0.8125 3.25 -0.8125q2.0 0 3.359375 1.015625q1.375 1.015625 1.90625 2.875l-1.734375 0.40625q-0.46875 -1.453125 -1.359375 -2.109375q-0.875 -0.671875 -2.203125 -0.671875q-1.546875 0 -2.578125 0.734375q-1.03125 0.734375 -1.4531555 1.984375q-0.421875 1.234375 -0.421875 2.5625q0 1.703125 0.5 2.96875q0.5000305 1.265625 1.5469055 1.90625q1.046875 0.625 2.265625 0.625q1.484375 0 2.515625 -0.859375q1.03125 -0.859375 1.390625 -2.546875zm10.051025 3.5q-0.921875 0.765625 -1.765625 1.09375q-0.828125 0.3125 -1.796875 0.3125q-1.59375 0 -2.453125 -0.78125q-0.859375 -0.78125 -0.859375 -1.984375q0 -0.71875 0.328125 -1.296875q0.328125 -0.59375 0.84375 -0.9375q0.53125 -0.359375 1.1875 -0.546875q0.46875 -0.125 1.453125 -0.25q1.984375 -0.234375 2.921875 -0.5625q0.015625 -0.34375 0.015625 -0.421875q0 -1.0 -0.46875 -1.421875q-0.625 -0.546875 -1.875 -0.546875q-1.15625 0 -1.703125 0.40625q-0.546875 0.40625 -0.8125 1.421875l-1.609375 -0.21875q0.21875 -1.015625 0.71875 -1.640625q0.5 -0.640625 1.453125 -0.984375q0.953125 -0.34375 2.1875 -0.34375q1.25 0 2.015625 0.296875q0.78125 0.28125 1.140625 0.734375q0.375 0.4375 0.515625 1.109375q0.078125 0.421875 0.078125 1.515625l0 2.1875q0 2.28125 0.109375 2.890625q0.109375 0.59375 0.40625 1.15625l-1.703125 0q-0.265625 -0.515625 -0.328125 -1.1875zm-0.140625 -3.671875q-0.890625 0.375 -2.671875 0.625q-1.015625 0.140625 -1.4375 0.328125q-0.421875 0.1875 -0.65625 0.53125q-0.21875 0.34375 -0.21875 0.78125q0 0.65625 0.5 1.09375q0.5 0.4375 1.453125 0.4375q0.9375 0 1.671875 -0.40625q0.75 -0.421875 1.09375 -1.140625q0.265625 -0.5625 0.265625 -1.640625l0 -0.609375zm4.1882324 4.859375l0 -9.671875l1.46875 0l0 1.46875q0.5625 -1.03125 1.03125 -1.359375q0.484375 -0.328125 1.0625 -0.328125q0.828125 0 1.6875 0.53125l-0.5625 1.515625q-0.609375 -0.359375 -1.203125 -0.359375q-0.546875 0 -0.96875 0.328125q-0.421875 0.328125 -0.609375 0.890625q-0.28125 0.875 -0.28125 1.921875l0 5.0625l-1.625 0zm9.8064575 -1.46875l0.234375 1.453125q-0.6875 0.140625 -1.234375 0.140625q-0.890625 0 -1.390625 -0.28125q-0.484375 -0.28125 -0.6875 -0.734375q-0.203125 -0.46875 -0.203125 -1.9375l0 -5.578125l-1.203125 0l0 -1.265625l1.203125 0l0 -2.390625l1.625 -0.984375l0 3.375l1.65625 0l0 1.265625l-1.65625 0l0 5.671875q0 0.6875 0.078125 0.890625q0.09375 0.203125 0.28125 0.328125q0.203125 0.109375 0.578125 0.109375q0.265625 0 0.71875 -0.0625z" fill-rule="nonzero"/><path fill="#ffd966" d="m739.07086 182.43832l178.2362 0l0 67.9055l-178.2362 0z" fill-rule="evenodd"/><path fill="#000000" d="m749.50836 223.31108l0 -13.359375l5.046875 0q1.328125 0 2.03125 0.125q0.96875 0.171875 1.640625 0.640625q0.671875 0.453125 1.078125 1.28125q0.40625 0.828125 0.40625 1.828125q0 1.703125 -1.09375 2.890625q-1.078125 1.171875 -3.921875 1.171875l-3.421875 0l0 5.421875l-1.765625 0zm1.765625 -7.0l3.453125 0q1.71875 0 2.4375 -0.640625q0.71875 -0.640625 0.71875 -1.796875q0 -0.84375 -0.421875 -1.4375q-0.421875 -0.59375 -1.125 -0.78125q-0.4375 -0.125 -1.640625 -0.125l-3.421875 0l0 4.78125zm16.787354 5.8125q-0.921875 0.765625 -1.765625 1.09375q-0.828125 0.3125 -1.796875 0.3125q-1.59375 0 -2.453125 -0.78125q-0.859375 -0.78125 -0.859375 -1.984375q0 -0.71875 0.328125 -1.296875q0.328125 -0.59375 0.84375 -0.9375q0.53125 -0.359375 1.1875 -0.546875q0.46875 -0.125 1.453125 -0.25q1.984375 -0.234375 2.921875 -0.5625q0.015625 -0.34375 0.015625 -0.421875q0 -1.0 -0.46875 -1.421875q-0.625 -0.546875 -1.875 -0.546875q-1.15625 0 -1.703125 0.40625q-0.546875 0.40625 -0.8125 1.421875l-1.609375 -0.21875q0.21875 -1.015625 0.71875 -1.640625q0.5 -0.640625 1.453125 -0.984375q0.953125 -0.34375 2.1875 -0.34375q1.25 0 2.015625 0.296875q0.78125 0.28125 1.140625 0.734375q0.375 0.4375 0.515625 1.109375q0.078125 0.421875 0.078125 1.515625l0 2.1875q0 2.28125 0.109375 2.890625q0.109375 0.59375 0.40625 1.15625l-1.703125 0q-0.265625 -0.515625 -0.328125 -1.1875zm-0.140625 -3.671875q-0.890625 0.375 -2.671875 0.625q-1.015625 0.140625 -1.4375 0.328125q-0.421875 0.1875 -0.65625 0.53125q-0.21875 0.34375 -0.21875 0.78125q0 0.65625 0.5 1.09375q0.5 0.4375 1.453125 0.4375q0.9375 0 1.671875 -0.40625q0.75 -0.421875 1.09375 -1.140625q0.265625 -0.5625 0.265625 -1.640625l0 -0.609375zm4.1256714 8.578125l-0.1875 -1.53125q0.546875 0.140625 0.9375 0.140625q0.546875 0 0.875 -0.1875q0.328125 -0.171875 0.546875 -0.5q0.15625 -0.25 0.5 -1.21875q0.046875 -0.140625 0.140625 -0.40625l-3.671875 -9.6875l1.765625 0l2.015625 5.59375q0.390625 1.078125 0.703125 2.25q0.28125 -1.125 0.671875 -2.203125l2.078125 -5.640625l1.640625 0l-3.6875 9.828125q-0.59375 1.609375 -0.921875 2.203125q-0.4375 0.8125 -1.0 1.1875q-0.5625 0.375 -1.34375 0.375q-0.484375 0 -1.0625 -0.203125zm9.40625 -3.71875l0 -9.671875l1.46875 0l0 1.359375q0.453125 -0.71875 1.203125 -1.140625q0.765625 -0.4375 1.71875 -0.4375q1.078125 0 1.765625 0.453125q0.6875 0.4375 0.96875 1.234375q1.15625 -1.6875 2.984375 -1.6875q1.453125 0 2.21875 0.796875q0.78125 0.796875 0.78125 2.453125l0 6.640625l-1.640625 0l0 -6.09375q0 -0.984375 -0.15625 -1.40625q-0.15625 -0.4375 -0.578125 -0.703125q-0.421875 -0.265625 -0.984375 -0.265625q-1.015625 0 -1.6875 0.6875q-0.671875 0.671875 -0.671875 2.15625l0 5.625l-1.640625 0l0 -6.28125q0 -1.09375 -0.40625 -1.640625q-0.40625 -0.546875 -1.3125 -0.546875q-0.6875 0 -1.28125 0.359375q-0.59375 0.359375 -0.859375 1.0625q-0.25 0.703125 -0.25 2.03125l0 5.015625l-1.640625 0zm22.165833 -3.109375l1.6875 0.203125q-0.40625 1.484375 -1.484375 2.3125q-1.078125 0.8125 -2.765625 0.8125q-2.125 0 -3.375 -1.296875q-1.234375 -1.3125 -1.234375 -3.671875q0 -2.453125 1.25 -3.796875q1.265625 -1.34375 3.265625 -1.34375q1.9375 0 3.15625 1.328125q1.234375 1.3125 1.234375 3.703125q0 0.15625 0 0.4375l-7.21875 0q0.09375 1.59375 0.90625 2.453125q0.8125 0.84375 2.015625 0.84375q0.90625 0 1.546875 -0.46875q0.640625 -0.484375 1.015625 -1.515625zm-5.390625 -2.65625l5.40625 0q-0.109375 -1.21875 -0.625 -1.828125q-0.78125 -0.953125 -2.03125 -0.953125q-1.125 0 -1.90625 0.765625q-0.765625 0.75 -0.84375 2.015625zm9.141357 5.765625l0 -9.671875l1.46875 0l0 1.375q1.0625 -1.59375 3.078125 -1.59375q0.875 0 1.609375 0.3125q0.734375 0.3125 1.09375 0.828125q0.375 0.5 0.515625 1.203125q0.09375 0.453125 0.09375 1.59375l0 5.953125l-1.640625 0l0 -5.890625q0 -1.0 -0.203125 -1.484375q-0.1875 -0.5 -0.671875 -0.796875q-0.484375 -0.296875 -1.140625 -0.296875q-1.046875 0 -1.8125 0.671875q-0.75 0.65625 -0.75 2.515625l0 5.28125l-1.640625 0zm13.953796 -1.46875l0.234375 1.453125q-0.6875 0.140625 -1.234375 0.140625q-0.890625 0 -1.390625 -0.28125q-0.484375 -0.28125 -0.6875 -0.734375q-0.203125 -0.46875 -0.203125 -1.9375l0 -5.578125l-1.203125 0l0 -1.265625l1.203125 0l0 -2.390625l1.625 -0.984375l0 3.375l1.65625 0l0 1.265625l-1.65625 0l0 5.671875q0 0.6875 0.078125 0.890625q0.09375 0.203125 0.28125 0.328125q0.203125 0.109375 0.578125 0.109375q0.265625 0 0.71875 -0.0625z" fill-rule="nonzero"/><path fill="#000000" fill-opacity="0.0" d="m423.40158 101.244095c12.500336 0 35.26837 -14.737068 25.00064 -29.47638c-10.2677 -14.739311 -53.571198 -29.480877 -96.874664 -29.476376c-43.303467 0.004497528 -86.606964 14.755062 -96.874664 29.50787c-10.267731 14.752815 12.500336 29.507874 25.00064 29.507874" fill-rule="evenodd"/><path stroke="#000000" stroke-width="1.0" stroke-linejoin="round" stroke-linecap="butt" d="m423.40158 101.244095c12.500336 0 35.26837 -14.737061 25.00064 -29.47638c-10.2677 -14.739311 -53.571198 -29.480877 -96.874664 -29.476376c-43.303467 0.004497528 -86.606964 14.755058 -96.874664 29.50787c-5.1338654 7.376404 -2.008789 14.75338 3.9623108 20.286247c2.9855347 2.7664337 6.6825867 5.0718384 10.41452 6.685646c0.9329834 0.40343475 1.8681335 0.76366425 2.7949219 1.0770645c0.4633789 0.1566925 0.9246521 0.30168152 1.3825073 0.4345169c0.11450195 0.033210754 0.22875977 0.06565857 0.34274292 0.097335815l0.16870117 0.04584503" fill-rule="evenodd"/><path fill="#000000" stroke="#000000" stroke-width="1.0" stroke-linecap="butt" d="m273.476 102.05968l4.731476 -0.9673004l-4.246277 -2.3003387z" fill-rule="evenodd"/><path fill="#000000" fill-opacity="0.0" d="m195.7454 216.3622c12.500336 0 35.26837 -14.737061 25.000656 -29.476364c-10.267715 -14.739319 -53.571198 -29.48088 -96.87467 -29.47638c-43.303482 0.004501343 -86.60696 14.755051 -96.87467 29.507874c-10.267715 14.752808 12.50033 29.507874 25.000658 29.507874" fill-rule="evenodd"/><path stroke="#000000" stroke-width="1.0" stroke-linejoin="round" stroke-linecap="butt" d="m195.7454 216.3622c12.50032 0 35.26837 -14.737061 25.000656 -29.476364c-10.267715 -14.739319 -53.571198 -29.48088 -96.87467 -29.47638c-43.303474 0.004501343 -86.60696 14.755066 -96.87467 29.507874c-5.1338596 7.3763885 -2.0087738 14.753357 3.9623127 20.286224c2.9855423 2.766449 6.6825905 5.0718536 10.41452 6.6856537c0.9329796 0.40344238 1.868145 0.76368713 2.7949142 1.0770569c0.46338272 0.15670776 0.924675 0.30169678 1.3825417 0.4345398c0.11446762 0.033218384 0.22872162 0.06564331 0.3427391 0.097335815l0.16869736 0.045822144" fill-rule="evenodd"/><path fill="#000000" stroke="#000000" stroke-width="1.0" stroke-linecap="butt" d="m45.81985 217.1778l4.731476 -0.9673157l-4.246292 -2.3003235z" fill-rule="evenodd"/><path fill="#000000" fill-opacity="0.0" d="m643.30444 216.38977c12.500366 0 35.26837 -14.737076 25.000671 -29.47638c-10.2677 -14.739319 -53.571167 -29.48088 -96.874695 -29.47638c-43.303467 0.004501343 -86.60693 14.755051 -96.87463 29.507874c-10.267731 14.752808 12.500305 29.507874 25.00064 29.507874" fill-rule="evenodd"/><path stroke="#000000" stroke-width="1.0" stroke-linejoin="round" stroke-linecap="butt" d="m643.30444 216.38977c12.500366 0 35.26837 -14.737061 25.000671 -29.47638c-10.2677 -14.739319 -53.571167 -29.48088 -96.874695 -29.47638c-43.303467 0.004501343 -86.60693 14.755066 -96.87463 29.507874c-5.1338806 7.3763885 -2.008789 14.753357 3.9623108 20.286224c2.9855042 2.766449 6.682556 5.0718536 10.41452 6.6856537c0.9329529 0.40344238 1.868103 0.76368713 2.7949219 1.0770721c0.4633789 0.1566925 0.9246521 0.30168152 1.3825378 0.43452454c0.11444092 0.033218384 0.22869873 0.06565857 0.3427124 0.097335815l0.16873169 0.045822144" fill-rule="evenodd"/><path fill="#000000" stroke="#000000" stroke-width="1.0" stroke-linecap="butt" d="m493.3789 217.20535l4.731476 -0.9673157l-4.2463074 -2.3003235z" fill-rule="evenodd"/><path fill="#000000" fill-opacity="0.0" d="m917.30707 216.39108c12.499695 0 37.73059 -14.737076 24.99945 -29.47638c-12.731201 -14.739319 -63.424377 -29.48088 -114.11755 -29.47638c-50.693176 0.004501343 -101.38635 14.755051 -114.11749 29.507874c-12.731201 14.752808 12.499695 29.507874 24.99939 29.507874" fill-rule="evenodd"/><path stroke="#000000" stroke-width="1.0" stroke-linejoin="round" stroke-linecap="butt" d="m917.30707 216.39108c12.499695 0 37.73059 -14.737061 24.99945 -29.47638c-12.73114 -14.739319 -63.424377 -29.48088 -114.11755 -29.47638c-50.693176 0.004501343 -101.38641 14.755066 -114.11755 29.507874c-6.3655396 7.3763885 -3.2406006 14.753357 3.038147 20.286224c3.1394653 2.766449 7.0672607 5.0718536 10.991516 6.6856537c0.98114014 0.40344238 1.9619141 0.76368713 2.9301758 1.0770721c0.48406982 0.1566925 0.9650879 0.30168152 1.4412842 0.43452454c0.11907959 0.033218384 0.237854 0.06565857 0.3562622 0.097335815l0.3022461 0.0790863" fill-rule="evenodd"/><path fill="#000000" stroke="#000000" stroke-width="1.0" stroke-linecap="butt" d="m732.89764 217.24126l4.726013 -0.9937897l-4.2591553 -2.2765198z" fill-rule="evenodd"/><path fill="#ea9999" d="m499.55905 499.34384l191.49606 0l0 67.90549l-191.49606 0z" fill-rule="evenodd"/><path fill="#000000" d="m509.4028 535.91974l1.65625 -0.140625q0.125 1.0 0.546875 1.640625q0.43753052 0.640625 1.3437805 1.046875q0.921875 0.390625 2.0625 0.390625q1.0 0 1.78125 -0.296875q0.78125 -0.296875 1.15625 -0.8125q0.375 -0.53125 0.375 -1.15625q0 -0.625 -0.375 -1.09375q-0.359375 -0.46875 -1.1875 -0.796875q-0.546875 -0.203125 -2.390625 -0.640625q-1.828125 -0.453125 -2.5625305 -0.84375q-0.96875 -0.5 -1.4375 -1.234375q-0.46875 -0.75 -0.46875 -1.671875q0 -1.0 0.578125 -1.875q0.578125 -0.890625 1.6719055 -1.34375q1.109375 -0.453125 2.453125 -0.453125q1.484375 0 2.609375 0.484375q1.140625 0.46875 1.75 1.40625q0.609375 0.921875 0.65625 2.09375l-1.6875 0.125q-0.140625 -1.265625 -0.9375 -1.90625q-0.78125 -0.65625 -2.3125 -0.65625q-1.609375 0 -2.34375 0.59375q-0.7344055 0.59375 -0.7344055 1.421875q0 0.71875 0.5312805 1.171875q0.5 0.46875 2.65625 0.96875q2.15625 0.484375 2.953125 0.84375q1.171875 0.53125 1.71875 1.359375q0.5625 0.828125 0.5625 1.90625q0 1.0625 -0.609375 2.015625q-0.609375 0.9375 -1.75 1.46875q-1.140625 0.515625 -2.578125 0.515625q-1.8125 0 -3.046875 -0.53125q-1.2187805 -0.53125 -1.9219055 -1.59375q-0.6875 -1.0625 -0.71875 -2.40625zm19.459198 1.1875l1.6875 0.203125q-0.40625 1.484375 -1.484375 2.3125q-1.078125 0.8125 -2.765625 0.8125q-2.125 0 -3.375 -1.296875q-1.234375 -1.3125 -1.234375 -3.671875q0 -2.453125 1.25 -3.796875q1.265625 -1.34375 3.265625 -1.34375q1.9375 0 3.15625 1.328125q1.234375 1.3125 1.234375 3.703125q0 0.15625 0 0.4375l-7.21875 0q0.09375 1.59375 0.90625 2.453125q0.8125 0.84375 2.015625 0.84375q0.90625 0 1.546875 -0.46875q0.640625 -0.484375 1.015625 -1.515625zm-5.390625 -2.65625l5.40625 0q-0.109375 -1.21875 -0.625 -1.828125q-0.78125 -0.953125 -2.03125 -0.953125q-1.125 0 -1.90625 0.765625q-0.765625 0.75 -0.84375 2.015625zm8.485107 2.875l1.625 -0.25q0.125 0.96875 0.75 1.5q0.625 0.515625 1.75 0.515625q1.125 0 1.671875 -0.453125q0.546875 -0.46875 0.546875 -1.09375q0 -0.546875 -0.484375 -0.875q-0.328125 -0.21875 -1.671875 -0.546875q-1.8125 -0.46875 -2.515625 -0.796875q-0.6875 -0.328125 -1.046875 -0.90625q-0.359375 -0.59375 -0.359375 -1.3125q0 -0.640625 0.296875 -1.1875q0.296875 -0.5625 0.8125 -0.921875q0.375 -0.28125 1.03125 -0.46875q0.671875 -0.203125 1.421875 -0.203125q1.140625 0 2.0 0.328125q0.859375 0.328125 1.265625 0.890625q0.421875 0.5625 0.578125 1.5l-1.609375 0.21875q-0.109375 -0.75 -0.640625 -1.171875q-0.515625 -0.421875 -1.46875 -0.421875q-1.140625 0 -1.625 0.375q-0.46875 0.375 -0.46875 0.875q0 0.3125 0.1875 0.578125q0.203125 0.265625 0.640625 0.4375q0.234375 0.09375 1.4375 0.421875q1.75 0.453125 2.4375 0.75q0.6875 0.296875 1.078125 0.859375q0.390625 0.5625 0.390625 1.40625q0 0.828125 -0.484375 1.546875q-0.46875 0.71875 -1.375 1.125q-0.90625 0.390625 -2.046875 0.390625q-1.875 0 -2.875 -0.78125q-0.984375 -0.78125 -1.25 -2.328125zm9.328125 0l1.625 -0.25q0.125 0.96875 0.75 1.5q0.625 0.515625 1.75 0.515625q1.125 0 1.671875 -0.453125q0.546875 -0.46875 0.546875 -1.09375q0 -0.546875 -0.484375 -0.875q-0.328125 -0.21875 -1.671875 -0.546875q-1.8125 -0.46875 -2.515625 -0.796875q-0.6875 -0.328125 -1.046875 -0.90625q-0.359375 -0.59375 -0.359375 -1.3125q0 -0.640625 0.296875 -1.1875q0.296875 -0.5625 0.8125 -0.921875q0.375 -0.28125 1.03125 -0.46875q0.671875 -0.203125 1.421875 -0.203125q1.140625 0 2.0 0.328125q0.859375 0.328125 1.265625 0.890625q0.421875 0.5625 0.578125 1.5l-1.609375 0.21875q-0.109375 -0.75 -0.640625 -1.171875q-0.515625 -0.421875 -1.46875 -0.421875q-1.140625 0 -1.625 0.375q-0.46875 0.375 -0.46875 0.875q0 0.3125 0.1875 0.578125q0.203125 0.265625 0.640625 0.4375q0.234375 0.09375 1.4375 0.421875q1.75 0.453125 2.4375 0.75q0.6875 0.296875 1.078125 0.859375q0.390625 0.5625 0.390625 1.40625q0 0.828125 -0.484375 1.546875q-0.46875 0.71875 -1.375 1.125q-0.90625 0.390625 -2.046875 0.390625q-1.875 0 -2.875 -0.78125q-0.984375 -0.78125 -1.25 -2.328125zm9.984375 -8.578125l0 -1.890625l1.640625 0l0 1.890625l-1.640625 0zm0 11.46875l0 -9.671875l1.640625 0l0 9.671875l-1.640625 0zm3.5354614 -4.84375q0 -2.6875 1.484375 -3.96875q1.25 -1.078125 3.046875 -1.078125q2.0 0 3.265625 1.3125q1.265625 1.296875 1.265625 3.609375q0 1.859375 -0.5625 2.9375q-0.5625 1.0625 -1.640625 1.65625q-1.0625 0.59375 -2.328125 0.59375q-2.03125 0 -3.28125 -1.296875q-1.25 -1.3125 -1.25 -3.765625zm1.6875 0q0 1.859375 0.796875 2.796875q0.8125 0.921875 2.046875 0.921875q1.21875 0 2.03125 -0.921875q0.8125 -0.9375 0.8125 -2.84375q0 -1.796875 -0.8125 -2.71875q-0.8125 -0.921875 -2.03125 -0.921875q-1.234375 0 -2.046875 0.921875q-0.796875 0.90625 -0.796875 2.765625zm9.297546 4.84375l0 -9.671875l1.46875 0l0 1.375q1.0625 -1.59375 3.078125 -1.59375q0.875 0 1.609375 0.3125q0.734375 0.3125 1.09375 0.828125q0.375 0.5 0.515625 1.203125q0.09375 0.453125 0.09375 1.59375l0 5.953125l-1.640625 0l0 -5.890625q0 -1.0 -0.203125 -1.484375q-0.1875 -0.5 -0.671875 -0.796875q-0.484375 -0.296875 -1.140625 -0.296875q-1.046875 0 -1.8125 0.671875q-0.75 0.65625 -0.75 2.515625l0 5.28125l-1.640625 0zm22.184021 -3.109375l1.6875 0.203125q-0.40625 1.484375 -1.484375 2.3125q-1.078125 0.8125 -2.765625 0.8125q-2.125 0 -3.375 -1.296875q-1.234375 -1.3125 -1.234375 -3.671875q0 -2.453125 1.25 -3.796875q1.265625 -1.34375 3.265625 -1.34375q1.9375 0 3.15625 1.328125q1.234375 1.3125 1.234375 3.703125q0 0.15625 0 0.4375l-7.21875 0q0.09375 1.59375 0.90625 2.453125q0.8125 0.84375 2.015625 0.84375q0.90625 0 1.546875 -0.46875q0.640625 -0.484375 1.015625 -1.515625zm-5.390625 -2.65625l5.40625 0q-0.109375 -1.21875 -0.625 -1.828125q-0.78125 -0.953125 -2.03125 -0.953125q-1.125 0 -1.90625 0.765625q-0.765625 0.75 -0.84375 2.015625zm9.141357 5.765625l0 -9.671875l1.46875 0l0 1.375q1.0625 -1.59375 3.078125 -1.59375q0.875 0 1.609375 0.3125q0.734375 0.3125 1.09375 0.828125q0.375 0.5 0.515625 1.203125q0.09375 0.453125 0.09375 1.59375l0 5.953125l-1.640625 0l0 -5.890625q0 -1.0 -0.203125 -1.484375q-0.1875 -0.5 -0.671875 -0.796875q-0.484375 -0.296875 -1.140625 -0.296875q-1.046875 0 -1.8125 0.671875q-0.75 0.65625 -0.75 2.515625l0 5.28125l-1.640625 0zm16.641357 0l0 -1.21875q-0.90625 1.4375 -2.703125 1.4375q-1.15625 0 -2.125 -0.640625q-0.96875 -0.640625 -1.5 -1.78125q-0.53125 -1.140625 -0.53125 -2.625q0 -1.453125 0.484375 -2.625q0.484375 -1.1875 1.4375 -1.8125q0.96875 -0.625 2.171875 -0.625q0.875 0 1.546875 0.375q0.6875 0.359375 1.109375 0.953125l0 -4.796875l1.640625 0l0 13.359375l-1.53125 0zm-5.171875 -4.828125q0 1.859375 0.78125 2.78125q0.78125 0.921875 1.84375 0.921875q1.078125 0 1.828125 -0.875q0.75 -0.890625 0.75 -2.6875q0 -1.984375 -0.765625 -2.90625q-0.765625 -0.9375 -1.890625 -0.9375q-1.078125 0 -1.8125 0.890625q-0.734375 0.890625 -0.734375 2.8125z" fill-rule="nonzero"/><path fill="#000000" fill-opacity="0.0" d="m419.73227 331.47244c12.500336 0 35.268402 -14.737061 25.000671 -29.47638c-10.267731 -14.739319 -53.571198 -29.480865 -96.874664 -29.47638c-43.303497 0.004486084 -86.606964 14.755066 -96.87468 29.507874c-10.267715 14.752808 12.50032 29.507874 25.000656 29.507874" fill-rule="evenodd"/><path stroke="#000000" stroke-width="1.0" stroke-linejoin="round" stroke-linecap="butt" d="m419.73227 331.47244c12.500336 0 35.268402 -14.737061 25.000671 -29.47638c-10.267731 -14.739319 -53.571198 -29.480865 -96.874664 -29.47638c-43.303497 0.004486084 -86.606964 14.755066 -96.87468 29.507874c-5.1338654 7.376404 -2.0087738 14.753357 3.9623108 20.286224c2.98555 2.766449 6.6825714 5.071869 10.414505 6.685669c0.9329834 0.40344238 1.8681641 0.7636719 2.7949219 1.0770569c0.4633789 0.15670776 0.9246826 0.30169678 1.3825378 0.43450928c0.114471436 0.033233643 0.22872925 0.06567383 0.34274292 0.097351074l0.16870117 0.045837402" fill-rule="evenodd"/><path fill="#000000" stroke="#000000" stroke-width="1.0" stroke-linecap="butt" d="m269.80673 332.28802l4.731476 -0.9673157l-4.2463074 -2.3003235z" fill-rule="evenodd"/><path fill="#000000" fill-opacity="0.0" d="m195.7454 216.3622c27.89441 0 17.812439 79.23622 55.78882 158.47246c37.976364 79.236206 124.01109 158.47241 248.0222 158.47241" fill-rule="evenodd"/><path stroke="#000000" stroke-width="1.0" stroke-linejoin="round" stroke-linecap="butt" d="m195.7454 216.3622c27.894424 0 17.812439 79.23622 55.78882 158.47246c18.988174 39.618103 49.99095 79.236206 91.74806 108.9498c20.87857 14.856781 44.44574 27.237457 70.543915 35.9039c13.049072 4.333191 26.730957 7.737915 41.02591 10.059326c7.1474304 1.1606445 14.448212 2.050537 21.89972 2.6502075c3.725769 0.2998047 7.489258 0.52716064 11.290131 0.6795044c0.9501953 0.038024902 1.902771 0.07147217 2.8576355 0.10015869c0.4774475 0.014343262 0.95547485 0.02746582 1.4341125 0.03942871l1.223053 0.02758789" fill-rule="evenodd"/><path fill="#000000" stroke="#000000" stroke-width="1.0" stroke-linecap="butt" d="m493.53952 534.8962l4.555084 -1.6043091l-4.52063 -1.6989746z" fill-rule="evenodd"/><path fill="#000000" fill-opacity="0.0" d="m423.40158 101.244095c19.039368 0 28.559052 108.01575 38.078735 216.03151c9.519684 108.01575 19.039368 216.03146 38.078735 216.03146" fill-rule="evenodd"/><path stroke="#000000" stroke-width="1.0" stroke-linejoin="round" stroke-linecap="butt" d="m423.40158 101.244095c19.039368 0 28.559052 108.01575 38.078735 216.03151c4.7598267 54.007874 9.519684 108.01575 15.469482 148.52164c2.9749146 20.25296 6.247284 37.1304 9.965912 48.94464c1.859314 5.9071045 3.8302002 10.548401 5.931244 13.712952c0.26263428 0.39556885 0.5272522 0.7680664 0.79400635 1.1170654c0.13336182 0.17449951 0.26727295 0.34313965 0.40164185 0.50579834c0.067230225 0.08135986 0.134552 0.16125488 0.20202637 0.23962402l0.06838989 0.07788086" fill-rule="evenodd"/><path fill="#000000" stroke="#000000" stroke-width="1.0" stroke-linecap="butt" d="m493.5114 531.83936l4.7694397 0.75823975l-3.1661987 -3.6466064z" fill-rule="evenodd"/><path fill="#000000" fill-opacity="0.0" d="m419.73227 331.47244c87.79529 0 175.59055 83.93701 175.59055 167.87402" fill-rule="evenodd"/><path stroke="#000000" stroke-width="1.0" stroke-linejoin="round" stroke-linecap="butt" d="m419.73227 331.47244c43.897644 0 87.79529 20.984253 120.71854 52.460632c16.461609 15.73819 30.179626 34.099396 39.782227 53.772156c4.8012695 9.836365 8.57373 20.00061 11.145874 30.328796c1.2860718 5.164093 2.2720337 10.369141 2.9365234 15.594757c0.33221436 2.6127625 0.58410645 5.2306824 0.75286865 7.8511353c0.021118164 0.32757568 0.040893555 0.6551819 0.059387207 0.9827881l0.04650879 0.8855896" fill-rule="evenodd"/><path fill="#000000" stroke="#000000" stroke-width="1.0" stroke-linecap="butt" d="m593.52295 493.38922l1.7636719 4.4957886l1.5387573 -4.5776367z" fill-rule="evenodd"/><path fill="#000000" fill-opacity="0.0" d="m423.40158 101.244095c12.497437 0 35.522552 32.88974 24.994873 57.556747c-10.527679 24.667023 -54.608124 41.111313 -98.68756 57.556763c-44.079437 16.445435 -88.15787 32.89203 -98.68756 57.56134c-10.529694 24.669342 12.489319 57.56137 24.978668 57.56137" fill-rule="evenodd"/><path stroke="#000000" stroke-width="1.0" stroke-linejoin="round" stroke-linecap="butt" d="m423.40158 101.244095c12.497437 0 35.522552 32.88974 24.994873 57.556747c-10.527649 24.667023 -54.608124 41.111313 -98.68756 57.556747c-44.079437 16.44545 -88.15787 32.892044 -98.68756 57.561386c-5.264847 12.334625 -2.142517 26.724976 3.857193 38.031647c2.9998627 5.653351 6.7190704 10.535767 10.468887 14.004852c0.93743896 0.86727905 1.8768005 1.6462097 2.8073425 2.3267822c0.465271 0.340271 0.9283142 0.65597534 1.3877869 0.9458313c0.22973633 0.14489746 0.45861816 0.2833557 0.6864319 0.41519165l0.050109863 0.028381348" fill-rule="evenodd"/><path fill="#000000" stroke="#000000" stroke-width="1.0" stroke-linecap="butt" d="m269.7812 331.24655l4.8249207 -0.20690918l-3.8291016 -2.9429016z" fill-rule="evenodd"/><path fill="#000000" fill-opacity="0.0" d="m419.73227 331.47244c12.497131 0 34.997803 -32.88974 24.994263 -57.556763c-10.00354 -24.667007 -52.51126 -41.111298 -95.018036 -57.556747c-42.506775 -16.445435 -85.01257 -32.892044 -95.018036 -57.561356c-10.005463 -24.669312 12.48941 -57.561356 24.97882 -57.561356" fill-rule="evenodd"/><path stroke="#000000" stroke-width="1.0" stroke-linejoin="round" stroke-linecap="butt" d="m419.73227 331.47244c12.497131 0 34.997803 -32.88974 24.994263 -57.556763c-10.003571 -24.667007 -52.51126 -41.111298 -95.018036 -57.556732c-42.506775 -16.445465 -85.01257 -32.892044 -95.018036 -57.56137c-5.0027313 -12.334656 -1.8803864 -26.725006 4.053833 -38.031677c2.967102 -5.6533356 6.6371765 -10.535751 10.346069 -14.004837c0.9272156 -0.8672714 1.856842 -1.6462097 2.778534 -2.3267822c0.46087646 -0.34028625 0.91973877 -0.65597534 1.3753052 -0.94581604c0.2277832 -0.14492035 0.45477295 -0.2833786 0.6807251 -0.41522217l0.02746582 -0.015663147" fill-rule="evenodd"/><path fill="#000000" stroke="#000000" stroke-width="1.0" stroke-linecap="butt" d="m274.45383 104.63137l3.8225403 -2.9513779l-4.825348 -0.19620514z" fill-rule="evenodd"/><path fill="#000000" fill-opacity="0.0" d="m423.40158 101.244095c19.038605 0 28.557526 28.7874 38.07721 57.5748c9.519684 28.7874 19.04013 57.574814 38.08026 57.574814" fill-rule="evenodd"/><path stroke="#000000" stroke-width="1.0" stroke-linejoin="round" stroke-linecap="butt" d="m423.40158 101.244095c19.038574 0 28.557526 28.7874 38.07721 57.5748c4.759857 14.393707 9.519897 28.7874 15.46994 39.582687c2.9750671 5.397629 6.2476196 9.89566 9.966431 13.044281c1.8594055 1.5743103 3.8303833 2.8112793 5.931488 3.6546478c0.26263428 0.10542297 0.52731323 0.20471191 0.7940674 0.2977295l0.0014343262 4.5776367E-4" fill-rule="evenodd"/><path fill="#000000" stroke="#000000" stroke-width="1.0" stroke-linecap="butt" d="m493.36823 217.02757l4.749176 -0.876297l-4.201355 -2.3814392z" fill-rule="evenodd"/><path fill="#000000" fill-opacity="0.0" d="m419.73227 331.47244c19.955963 0 29.935547 -28.771667 39.911896 -57.543304c9.976379 -28.771652 19.949585 -57.543304 39.89914 -57.543304" fill-rule="evenodd"/><path stroke="#000000" stroke-width="1.0" stroke-linejoin="round" stroke-linecap="butt" d="m419.73227 331.47244c19.955963 0 29.935547 -28.771667 39.911926 -57.543304c4.9881897 -14.385834 9.975555 -28.771652 16.209595 -39.561035c3.1170654 -5.394684 6.545746 -9.890244 10.441986 -13.037155c1.9481506 -1.5734406 4.013153 -2.809723 6.2145996 -3.6526337c0.275177 -0.1053772 0.55249023 -0.2046051 0.8319702 -0.2975464l0.2701416 -0.086502075" fill-rule="evenodd"/><path fill="#000000" stroke="#000000" stroke-width="1.0" stroke-linecap="butt" d="m493.86255 218.92696l4.235718 -2.3197937l-4.7358704 -0.94558716z" fill-rule="evenodd"/><path fill="#000000" fill-opacity="0.0" d="m643.30444 216.38977c12.499939 0 26.533203 46.404205 24.999878 79.226135c-1.5333862 32.82193 -18.6333 52.061554 -36.49994 79.226166c-17.866638 27.164581 -36.49994 62.25415 -36.49994 124.50833" fill-rule="evenodd"/><path stroke="#000000" stroke-width="1.0" stroke-linejoin="round" stroke-linecap="butt" d="m643.30444 216.38977c12.499939 0 26.533203 46.404205 24.999878 79.226135c-1.5333862 32.82193 -18.6333 52.061554 -36.49994 79.226166c-8.93335 13.582306 -18.05835 29.145844 -24.949951 49.09555c-3.4458008 9.9748535 -6.333313 21.046295 -8.359375 33.514893c-1.0130005 6.2342834 -1.8106079 12.817871 -2.3550415 19.78833c-0.2722168 3.485199 -0.4810791 7.0671997 -0.62194824 10.750549c-0.035217285 0.9208069 -0.066101074 1.8480225 -0.09277344 2.7815857c-0.013305664 0.46679688 -0.02557373 0.93518066 -0.03668213 1.4052124l-0.024963379 1.1724854" fill-rule="evenodd"/><path fill="#000000" stroke="#000000" stroke-width="1.0" stroke-linecap="butt" d="m593.712 493.3344l1.6068726 4.554138l1.6964111 -4.521576z" fill-rule="evenodd"/><path fill="#000000" fill-opacity="0.0" d="m643.30444 216.38977c23.941528 0 35.910645 0.01574707 47.883057 0.03149414c11.972473 0.01574707 23.948242 0.03149414 47.896484 0.03149414" fill-rule="evenodd"/><path stroke="#000000" stroke-width="1.0" stroke-linejoin="round" stroke-linecap="butt" d="m643.30444 216.38977c23.941528 0 35.910645 0.01574707 47.883057 0.03149414c5.986206 0.007873535 11.973267 0.01574707 19.457336 0.021652222c3.7420044 0.0029449463 7.8582764 0.00541687 12.535767 0.0071258545l9.903381 0.0016937256" fill-rule="evenodd"/><path fill="#000000" stroke="#000000" stroke-width="1.0" stroke-linecap="butt" d="m733.0837 218.10347l4.538391 -1.6509552l-4.537781 -1.6525116z" fill-rule="evenodd"/><path fill="#000000" fill-opacity="0.0" d="m917.30707 216.39108c12.498413 0 53.276367 79.22833 24.996887 158.4567c-28.279541 79.22833 -125.61658 158.45667 -251.2331 158.45667" fill-rule="evenodd"/><path stroke="#000000" stroke-width="1.0" stroke-linejoin="round" stroke-linecap="butt" d="m917.30707 216.39108c12.498474 0 53.276367 79.22833 24.996826 158.4567c-14.1397705 39.614166 -45.543884 79.22833 -89.11517 108.938965c-21.785583 14.855316 -46.613037 27.234741 -73.84503 35.90033c-13.616028 4.3328247 -27.83319 7.7371216 -42.5719 10.058289c-7.3693237 1.1605835 -14.86908 2.050354 -22.489136 2.6499634c-3.8101196 0.29986572 -7.6502686 0.5270996 -11.519348 0.67944336c-0.9672241 0.038085938 -1.9362793 0.07147217 -2.9071655 0.10015869c-0.4854126 0.014343262 -0.9713135 0.027526855 -1.4575806 0.039489746l-1.3280029 0.029418945" fill-rule="evenodd"/><path fill="#000000" stroke="#000000" stroke-width="1.0" stroke-linecap="butt" d="m697.05383 531.59216l-4.521118 1.6975098l4.5545654 1.6057739z" fill-rule="evenodd"/><path fill="#000000" fill-opacity="0.0" d="m195.7454 216.3622c20.977219 0 31.466248 -28.779526 41.954437 -57.55905c10.48819 -28.779526 20.97554 -57.55905 41.951065 -57.55905" fill-rule="evenodd"/><path stroke="#000000" stroke-width="1.0" stroke-linejoin="round" stroke-linecap="butt" d="m195.7454 216.3622c20.977219 0 31.466248 -28.779526 41.954437 -57.55905c5.244095 -14.389755 10.487991 -28.779526 17.04277 -39.571846c3.2774048 -5.396164 6.882538 -9.892967 10.979279 -13.040726c2.0484009 -1.573883 4.2196655 -2.810501 6.5343323 -3.6536484c0.28936768 -0.105392456 0.5809326 -0.20463562 0.8747864 -0.2976303c0.14691162 -0.04649353 0.29440308 -0.091423035 0.44250488 -0.13477325l0.13406372 -0.03767395" fill-rule="evenodd"/><path fill="#000000" stroke="#000000" stroke-width="1.0" stroke-linecap="butt" d="m273.93408 103.70297l4.268738 -2.2584152l-4.72171 -1.0138474z" fill-rule="evenodd"/><path fill="#000000" fill-opacity="0.0" d="m195.7454 216.3622c20.059784 0 30.088074 28.779541 40.119568 57.559067c10.031494 28.77951 20.066193 57.55905 40.1324 57.55905" fill-rule="evenodd"/><path stroke="#000000" stroke-width="1.0" stroke-linejoin="round" stroke-linecap="butt" d="m195.7454 216.3622c20.059769 0 30.088074 28.779541 40.119568 57.559067c5.015747 14.3897705 10.032288 28.77951 16.303192 39.57184c3.135437 5.396179 6.5844574 9.892975 10.503769 13.040741c1.9596558 1.573883 4.036865 2.8104858 6.251251 3.6536255c0.27679443 0.105407715 0.5557251 0.20465088 0.836853 0.29763794l0.30493164 0.097076416" fill-rule="evenodd"/><path fill="#000000" stroke="#000000" stroke-width="1.0" stroke-linecap="butt" d="m269.81772 332.2153l4.7342224 -0.9538269l-4.2397156 -2.3124084z" fill-rule="evenodd"/><path fill="#000000" fill-opacity="0.0" d="m423.40158 101.244095c12.499512 0 51.527954 16.445442 24.999023 28.779526c-26.5289 12.334091 -118.61517 20.556808 -210.70168 28.779526c-92.0865 8.222733 -184.17323 16.44545 -210.70169 28.779526c-26.528452 12.334091 12.501377 28.779526 25.002754 28.779526" fill-rule="evenodd"/><path stroke="#000000" stroke-width="1.0" stroke-linejoin="round" stroke-linecap="butt" d="m423.40158 101.244095c12.499512 0 51.527954 16.445442 24.999023 28.779526c-26.5289 12.334091 -118.61517 20.556808 -210.70168 28.779526c-92.0865 8.222733 -184.17323 16.44545 -210.70169 28.779526c-26.528452 12.334091 12.501377 28.779526 25.002754 28.779526" fill-rule="evenodd"/><path fill="#000000" fill-opacity="0.0" d="m419.73227 331.47244c12.499756 0 51.26654 -16.44458 24.999512 -28.777802c-26.266998 -12.333221 -117.56784 -20.555084 -208.868 -28.777802c-91.30014 -8.222717 -182.59961 -16.44632 -208.86801 -28.78125c-26.268406 -12.334946 12.49424 -28.781265 24.98848 -28.781265" fill-rule="evenodd"/><path stroke="#000000" stroke-width="1.0" stroke-linejoin="round" stroke-linecap="butt" d="m419.73227 331.47244c12.499756 0 51.26654 -16.44458 24.999512 -28.777802c-26.266998 -12.333221 -117.56784 -20.555084 -208.868 -28.777802c-91.30014 -8.222717 -182.59961 -16.44632 -208.86801 -28.78125c-26.268406 -12.334946 12.49424 -28.781265 24.98848 -28.781265" fill-rule="evenodd"/><path fill="#ffd966" d="m1013.0735 182.40158l178.2362 0l0 67.9055l-178.2362 0z" fill-rule="evenodd"/><path fill="#000000" d="m1022.97974 216.77432q0 -3.328125 1.78125 -5.203125q1.78125 -1.890625 4.609375 -1.890625q1.84375 0 3.328125 0.890625q1.484375 0.875 2.265625 2.46875q0.78125 1.578125 0.78125 3.578125q0 2.03125 -0.828125 3.640625q-0.8125 1.59375 -2.3125 2.421875q-1.5 0.828125 -3.25 0.828125q-1.875 0 -3.359375 -0.90625q-1.484375 -0.921875 -2.25 -2.5q-0.765625 -1.578125 -0.765625 -3.328125zm1.8125 0.015625q0 2.421875 1.296875 3.8125q1.296875 1.390625 3.265625 1.390625q2.0 0 3.28125 -1.40625q1.28125 -1.40625 1.28125 -3.984375q0 -1.625 -0.546875 -2.84375q-0.546875 -1.21875 -1.609375 -1.875q-1.0625 -0.671875 -2.375 -0.671875q-1.890625 0 -3.25 1.296875q-1.34375 1.28125 -1.34375 4.28125zm13.011475 6.484375l0 -9.671875l1.46875 0l0 1.46875q0.5625 -1.03125 1.03125 -1.359375q0.484375 -0.328125 1.0625 -0.328125q0.828125 0 1.6875 0.53125l-0.5625 1.515625q-0.609375 -0.359375 -1.203125 -0.359375q-0.546875 0 -0.96875 0.328125q-0.421875 0.328125 -0.609375 0.890625q-0.28125 0.875 -0.28125 1.921875l0 5.0625l-1.625 0zm12.4938965 0l0 -1.21875q-0.90625 1.4375 -2.703125 1.4375q-1.15625 0 -2.125 -0.640625q-0.96875 -0.640625 -1.5 -1.78125q-0.53125 -1.140625 -0.53125 -2.625q0 -1.453125 0.484375 -2.625q0.484375 -1.1875 1.4375 -1.8125q0.96875 -0.625 2.171875 -0.625q0.875 0 1.546875 0.375q0.6875 0.359375 1.109375 0.953125l0 -4.796875l1.640625 0l0 13.359375l-1.53125 0zm-5.171875 -4.828125q0 1.859375 0.78125 2.78125q0.78125 0.921875 1.84375 0.921875q1.078125 0 1.828125 -0.875q0.75 -0.890625 0.75 -2.6875q0 -1.984375 -0.765625 -2.90625q-0.765625 -0.9375 -1.890625 -0.9375q-1.078125 0 -1.8125 0.890625q-0.734375 0.890625 -0.734375 2.8125zm15.906982 1.71875l1.6875 0.203125q-0.40625 1.484375 -1.484375 2.3125q-1.078125 0.8125 -2.765625 0.8125q-2.125 0 -3.375 -1.296875q-1.234375 -1.3125 -1.234375 -3.671875q0 -2.453125 1.25 -3.796875q1.265625 -1.34375 3.265625 -1.34375q1.9375 0 3.15625 1.328125q1.234375 1.3125 1.234375 3.703125q0 0.15625 0 0.4375l-7.21875 0q0.09375 1.59375 0.90625 2.453125q0.8125 0.84375 2.015625 0.84375q0.90625 0 1.546875 -0.46875q0.640625 -0.484375 1.015625 -1.515625zm-5.390625 -2.65625l5.40625 0q-0.109375 -1.21875 -0.625 -1.828125q-0.78125 -0.953125 -2.03125 -0.953125q-1.125 0 -1.90625 0.765625q-0.765625 0.75 -0.84375 2.015625zm9.125732 5.765625l0 -9.671875l1.46875 0l0 1.46875q0.5625 -1.03125 1.03125 -1.359375q0.484375 -0.328125 1.0625 -0.328125q0.828125 0 1.6875 0.53125l-0.5625 1.515625q-0.609375 -0.359375 -1.203125 -0.359375q-0.546875 0 -0.96875 0.328125q-0.421875 0.328125 -0.609375 0.890625q-0.28125 0.875 -0.28125 1.921875l0 5.0625l-1.625 0zm21.145996 -4.6875l1.765625 0.453125q-0.5625 2.171875 -2.0 3.328125q-1.4375 1.140625 -3.53125 1.140625q-2.15625 0 -3.515625 -0.875q-1.34375 -0.890625 -2.0625 -2.546875q-0.703125 -1.671875 -0.703125 -3.59375q0 -2.078125 0.796875 -3.625q0.796875 -1.5625 2.265625 -2.359375q1.484375 -0.8125 3.25 -0.8125q2.0 0 3.359375 1.015625q1.375 1.015625 1.90625 2.875l-1.734375 0.40625q-0.46875 -1.453125 -1.359375 -2.109375q-0.875 -0.671875 -2.203125 -0.671875q-1.546875 0 -2.578125 0.734375q-1.03125 0.734375 -1.453125 1.984375q-0.421875 1.234375 -0.421875 2.5625q0 1.703125 0.5 2.96875q0.5 1.265625 1.546875 1.90625q1.046875 0.625 2.265625 0.625q1.484375 0 2.515625 -0.859375q1.03125 -0.859375 1.390625 -2.546875zm3.1291504 -0.15625q0 -2.6875 1.484375 -3.96875q1.25 -1.078125 3.046875 -1.078125q2.0 0 3.265625 1.3125q1.265625 1.296875 1.265625 3.609375q0 1.859375 -0.5625 2.9375q-0.5625 1.0625 -1.640625 1.65625q-1.0625 0.59375 -2.328125 0.59375q-2.03125 0 -3.28125 -1.296875q-1.25 -1.3125 -1.25 -3.765625zm1.6875 0q0 1.859375 0.796875 2.796875q0.8125 0.921875 2.046875 0.921875q1.21875 0 2.03125 -0.921875q0.8125 -0.9375 0.8125 -2.84375q0 -1.796875 -0.8125 -2.71875q-0.8125 -0.921875 -2.03125 -0.921875q-1.234375 0 -2.046875 0.921875q-0.796875 0.90625 -0.796875 2.765625zm9.297607 4.84375l0 -9.671875l1.46875 0l0 1.359375q0.453125 -0.71875 1.203125 -1.140625q0.765625 -0.4375 1.71875 -0.4375q1.078125 0 1.765625 0.453125q0.6875 0.4375 0.96875 1.234375q1.15625 -1.6875 2.984375 -1.6875q1.453125 0 2.21875 0.796875q0.78125 0.796875 0.78125 2.453125l0 6.640625l-1.640625 0l0 -6.09375q0 -0.984375 -0.15625 -1.40625q-0.15625 -0.4375 -0.578125 -0.703125q-0.421875 -0.265625 -0.984375 -0.265625q-1.015625 0 -1.6875 0.6875q-0.671875 0.671875 -0.671875 2.15625l0 5.625l-1.640625 0l0 -6.28125q0 -1.09375 -0.40625 -1.640625q-0.40625 -0.546875 -1.3125 -0.546875q-0.6875 0 -1.28125 0.359375q-0.59375 0.359375 -0.859375 1.0625q-0.25 0.703125 -0.25 2.03125l0 5.015625l-1.640625 0zm15.5407715 3.703125l0 -13.375l1.484375 0l0 1.25q0.53125 -0.734375 1.1875 -1.09375q0.671875 -0.375 1.625 -0.375q1.234375 0 2.171875 0.640625q0.953125 0.625 1.4375 1.796875q0.484375 1.15625 0.484375 2.546875q0 1.484375 -0.53125 2.671875q-0.53125 1.1875 -1.546875 1.828125q-1.015625 0.625 -2.140625 0.625q-0.8125 0 -1.46875 -0.34375q-0.65625 -0.34375 -1.0625 -0.875l0 4.703125l-1.640625 0zm1.484375 -8.484375q0 1.859375 0.75 2.765625q0.765625 0.890625 1.828125 0.890625q1.09375 0 1.875 -0.921875q0.78125 -0.9375 0.78125 -2.875q0 -1.84375 -0.765625 -2.765625q-0.75 -0.921875 -1.8125 -0.921875q-1.046875 0 -1.859375 0.984375q-0.796875 0.96875 -0.796875 2.84375zm8.844482 4.78125l0 -13.359375l1.640625 0l0 13.359375l-1.640625 0zm10.81665 -3.109375l1.6875 0.203125q-0.40625 1.484375 -1.484375 2.3125q-1.078125 0.8125 -2.765625 0.8125q-2.125 0 -3.375 -1.296875q-1.234375 -1.3125 -1.234375 -3.671875q0 -2.453125 1.25 -3.796875q1.265625 -1.34375 3.265625 -1.34375q1.9375 0 3.15625 1.328125q1.234375 1.3125 1.234375 3.703125q0 0.15625 0 0.4375l-7.21875 0q0.09375 1.59375 0.90625 2.453125q0.8125 0.84375 2.015625 0.84375q0.90625 0 1.546875 -0.46875q0.640625 -0.484375 1.015625 -1.515625zm-5.390625 -2.65625l5.40625 0q-0.109375 -1.21875 -0.625 -1.828125q-0.78125 -0.953125 -2.03125 -0.953125q-1.125 0 -1.90625 0.765625q-0.765625 0.75 -0.84375 2.015625zm12.719482 4.296875l0.234375 1.453125q-0.6875 0.140625 -1.234375 0.140625q-0.890625 0 -1.390625 -0.28125q-0.484375 -0.28125 -0.6875 -0.734375q-0.203125 -0.46875 -0.203125 -1.9375l0 -5.578125l-1.203125 0l0 -1.265625l1.203125 0l0 -2.390625l1.625 -0.984375l0 3.375l1.65625 0l0 1.265625l-1.65625 0l0 5.671875q0 0.6875 0.078125 0.890625q0.09375 0.203125 0.28125 0.328125q0.203125 0.109375 0.578125 0.109375q0.265625 0 0.71875 -0.0625zm8.230225 -1.640625l1.6875 0.203125q-0.40625 1.484375 -1.484375 2.3125q-1.078125 0.8125 -2.765625 0.8125q-2.125 0 -3.375 -1.296875q-1.234375 -1.3125 -1.234375 -3.671875q0 -2.453125 1.25 -3.796875q1.265625 -1.34375 3.265625 -1.34375q1.9375 0 3.15625 1.328125q1.234375 1.3125 1.234375 3.703125q0 0.15625 0 0.4375l-7.21875 0q0.09375 1.59375 0.90625 2.453125q0.8125 0.84375 2.015625 0.84375q0.90625 0 1.546875 -0.46875q0.640625 -0.484375 1.015625 -1.515625zm-5.390625 -2.65625l5.40625 0q-0.109375 -1.21875 -0.625 -1.828125q-0.78125 -0.953125 -2.03125 -0.953125q-1.125 0 -1.90625 0.765625q-0.765625 0.75 -0.84375 2.015625z" fill-rule="nonzero"/><path fill="#000000" fill-opacity="0.0" d="m643.30444 216.38977c12.500244 0 67.236694 14.739304 25.000488 29.476364c-42.236206 14.737076 -181.44513 29.471878 -320.65402 29.476395c-139.20888 0.004486084 -278.4178 -14.721313 -320.654 -29.444885c-42.23622 -14.723572 12.500231 -29.444885 25.000463 -29.444885" fill-rule="evenodd"/><path stroke="#000000" stroke-width="1.0" stroke-linejoin="round" stroke-linecap="butt" d="m643.30444 216.38977c12.500244 0 67.236694 14.739304 25.000488 29.476364c-42.236206 14.737076 -181.44513 29.471878 -320.65402 29.476395c-139.20888 0.004486084 -278.4178 -14.721313 -320.654 -29.444885c-42.23622 -14.723572 12.500231 -29.444885 25.000463 -29.444885" fill-rule="evenodd"/><path fill="#000000" fill-opacity="0.0" d="m917.30707 216.39108c23.941528 0 35.910645 0.01574707 47.883057 0.03149414c11.972473 0.01574707 23.948242 0.03149414 47.896484 0.03149414" fill-rule="evenodd"/><path stroke="#000000" stroke-width="1.0" stroke-linejoin="round" stroke-linecap="butt" d="m917.30707 216.39108c23.941528 0 35.910645 0.01574707 47.883057 0.03149414c5.986206 0.007873535 11.973267 0.01574707 19.457336 0.021652222c3.7420044 0.0029449463 7.8582764 0.00541687 12.535767 0.0071258545l9.903381 0.0016937256" fill-rule="evenodd"/><path fill="#000000" stroke="#000000" stroke-width="1.0" stroke-linecap="butt" d="m1007.0863 218.10478l4.538391 -1.6509552l-4.537781 -1.6525116z" fill-rule="evenodd"/><path fill="#000000" fill-opacity="0.0" d="m1191.3097 216.35432c12.499756 0 37.73059 -14.737061 24.99939 -29.476364c-12.731079 -14.739319 -63.424316 -29.48088 -114.11743 -29.47638c-50.693237 0.004486084 -101.38641 14.755051 -114.11755 29.507874c-12.731201 14.752808 12.499695 29.507874 24.99939 29.507874" fill-rule="evenodd"/><path stroke="#000000" stroke-width="1.0" stroke-linejoin="round" stroke-linecap="butt" d="m1191.3097 216.35432c12.499634 0 37.73059 -14.737061 24.99939 -29.476364c-12.731079 -14.739319 -63.424316 -29.48088 -114.11743 -29.47638c-50.693237 0.004501343 -101.386475 14.755066 -114.117615 29.507874c-6.3655396 7.3763885 -3.2406006 14.753357 3.038147 20.286224c3.1394653 2.766449 7.0672607 5.0718536 10.991516 6.6856537c0.98114014 0.40344238 1.9619141 0.76368713 2.9301758 1.0770569c0.48406982 0.15670776 0.9650879 0.30169678 1.4412842 0.4345398c0.11907959 0.033218384 0.237854 0.06564331 0.3562622 0.097335815l0.3022461 0.0790863" fill-rule="evenodd"/><path fill="#000000" stroke="#000000" stroke-width="1.0" stroke-linecap="butt" d="m1006.90027 217.2045l4.726013 -0.9937897l-4.2591553 -2.2765045z" fill-rule="evenodd"/><path fill="#000000" fill-opacity="0.0" d="m1191.3097 216.35432c12.498779 0 87.52905 79.23622 24.997559 158.47246c-62.531494 79.236206 -262.62476 158.47241 -525.2495 158.47241" fill-rule="evenodd"/><path stroke="#000000" stroke-width="1.0" stroke-linejoin="round" stroke-linecap="butt" d="m1191.3097 216.35432c12.498779 0 87.529175 79.23622 24.99768 158.47246c-31.265747 39.618103 -96.922 79.236206 -187.58984 108.9498c-45.333923 14.856781 -96.92078 27.237457 -153.5882 35.9039c-28.33374 4.333191 -57.93756 7.737915 -88.66504 10.059326c-15.363647 1.1606445 -31.008362 2.050476 -46.915466 2.6502075c-7.9536743 0.2998047 -15.9729 0.52716064 -24.055481 0.6795044c-4.041321 0.076171875 -8.098511 0.13354492 -12.171143 0.17193604c-2.036377 0.019226074 -4.07666 0.03363037 -6.1206665 0.043273926l-0.14379883 5.493164E-4" fill-rule="evenodd"/><path fill="#000000" stroke="#000000" stroke-width="1.0" stroke-linecap="butt" d="m697.0539 531.63354l-4.5342407 1.6622925l4.541931 1.6411133z" fill-rule="evenodd"/><path fill="#000000" fill-opacity="0.0" d="m917.30707 216.39108c12.499512 0 54.8385 14.739304 24.999023 29.476364c-29.839478 14.737076 -131.85748 29.471878 -233.87463 29.476395c-102.01715 0.004486084 -204.03354 -14.721313 -233.8746 -29.444885c-29.841064 -14.723572 12.493225 -29.444885 24.98645 -29.444885" fill-rule="evenodd"/><path stroke="#000000" stroke-width="1.0" stroke-linejoin="round" stroke-linecap="butt" d="m917.30707 216.39108c12.499512 0 54.8385 14.739304 24.999023 29.476364c-29.839478 14.737076 -131.85748 29.471878 -233.87463 29.476395c-102.01715 0.004486084 -204.03354 -14.721313 -233.8746 -29.444885c-29.841064 -14.723572 12.493225 -29.444885 24.98645 -29.444885" fill-rule="evenodd"/></g></svg>